<svg xmlns="http://www.w3.org/2000/svg"  version="1.1" x="0px" y="0px" viewBox="0 0 512 512" enable-background="new 0 0 512 512" xml:space="preserve">
  <g>
    <g fill="#FF9800">
      <path d="M173.988,222.573c-4.038,0-7.322,3.285-7.322,7.323s3.285,7.322,7.322,7.322c4.038,0,7.323-3.285,7.323-7.322    S178.026,222.573,173.988,222.573z"/>
      <path d="M338.012,222.573c-4.038,0-7.323,3.285-7.323,7.323s3.285,7.322,7.323,7.322c4.038,0,7.322-3.285,7.322-7.322    S342.049,222.573,338.012,222.573z"/>
      <path d="M396.838,180.976L452.879,66.98l-10.769-5.294l-54.384,110.626C352.703,141.041,306.536,122,256,122    c-49.995,0-95.713,18.634-130.597,49.311L69.858,61.623l-10.706,5.421l57.122,112.804C80.296,215.717,58,265.303,58,320v6h396v-6    C454,265.872,432.159,216.754,396.838,180.976z M70.095,314C73.277,214.208,155.449,134,256,134s182.723,80.208,185.905,180    H70.095z"/>
      <path d="M58,454h396v-92H58V454z M70,374h372v68H70V374z"/>
    </g>
  </g>
</svg>